<svg width="527" height="146" viewBox="0 0 527 146" fill="none" xmlns="http://www.w3.org/2000/svg">
<path d="M124.74 122.12C125.46 123.68 125.82 125.24 125.82 126.8C125.82 129.56 124.68 131.9 122.4 133.82C120.24 135.74 117.72 136.7 114.84 136.7C112.92 136.7 111.12 136.22 109.44 135.26C107.76 134.18 106.44 132.56 105.48 130.4L94.68 106.28H31.32L20.52 130.4C19.56 132.56 18.24 134.18 16.56 135.26C14.88 136.22 13.02 136.7 10.98 136.7C8.22 136.7 5.7 135.74 3.42 133.82C1.14 131.9 0 129.56 0 126.8C0 125.24 0.36 123.68 1.08 122.12L50.76 15.38C51.84 12.98 53.46 11.18 55.62 9.98C57.9 8.66 60.3 8 62.82 8C65.34 8 67.68 8.66 69.84 9.98C72.12 11.18 73.8 12.98 74.88 15.38L124.74 122.12ZM39.24 88.28H86.76L63 34.82L39.24 88.28Z" fill="#292931"/>
<path d="M166.387 137.42C153.307 137.42 142.747 134.84 134.707 129.68C130.867 127.4 128.947 124.16 128.947 119.96C128.947 117.56 129.607 115.64 130.927 114.2C132.247 112.64 133.867 111.86 135.787 111.86C137.827 111.86 140.647 112.82 144.247 114.74C148.087 116.54 151.567 117.92 154.687 118.88C157.927 119.84 162.007 120.32 166.927 120.32C171.967 120.32 175.867 119.48 178.627 117.8C181.507 116.12 182.947 113.78 182.947 110.78C182.947 108.74 182.347 107.12 181.147 105.92C180.067 104.72 178.027 103.64 175.027 102.68C172.147 101.6 167.707 100.4 161.707 99.08C151.027 96.92 143.347 93.86 138.667 89.9C134.107 85.94 131.827 80.48 131.827 73.52C131.827 68.24 133.387 63.5 136.507 59.3C139.627 54.98 143.887 51.68 149.287 49.4C154.807 47 161.047 45.8 168.007 45.8C173.047 45.8 177.907 46.46 182.587 47.78C187.267 48.98 191.468 50.78 195.188 53.18C199.028 55.58 200.947 58.76 200.947 62.72C200.947 65.12 200.287 67.16 198.967 68.84C197.648 70.4 196.027 71.18 194.107 71.18C192.787 71.18 191.467 70.94 190.147 70.46C188.947 69.86 187.387 69.02 185.467 67.94C181.987 66.14 178.987 64.82 176.467 63.98C173.947 63.02 170.827 62.54 167.107 62.54C162.667 62.54 159.127 63.44 156.487 65.24C153.967 67.04 152.707 69.5 152.707 72.62C152.707 75.62 154.027 77.9 156.667 79.46C159.307 81.02 164.407 82.58 171.967 84.14C180.007 85.82 186.307 87.74 190.867 89.9C195.427 92.06 198.667 94.76 200.587 98C202.627 101.24 203.647 105.38 203.647 110.42C203.647 118.58 200.227 125.12 193.387 130.04C186.667 134.96 177.667 137.42 166.387 137.42Z" fill="#292931"/>
<path d="M248.351 137.42C235.271 137.42 224.711 134.84 216.671 129.68C212.831 127.4 210.911 124.16 210.911 119.96C210.911 117.56 211.571 115.64 212.891 114.2C214.211 112.64 215.831 111.86 217.751 111.86C219.791 111.86 222.611 112.82 226.211 114.74C230.051 116.54 233.531 117.92 236.651 118.88C239.891 119.84 243.971 120.32 248.891 120.32C253.931 120.32 257.831 119.48 260.591 117.8C263.471 116.12 264.911 113.78 264.911 110.78C264.911 108.74 264.311 107.12 263.111 105.92C262.031 104.72 259.991 103.64 256.991 102.68C254.111 101.6 249.671 100.4 243.671 99.08C232.991 96.92 225.311 93.86 220.631 89.9C216.071 85.94 213.791 80.48 213.791 73.52C213.791 68.24 215.351 63.5 218.471 59.3C221.591 54.98 225.851 51.68 231.251 49.4C236.771 47 243.011 45.8 249.971 45.8C255.011 45.8 259.871 46.46 264.551 47.78C269.231 48.98 273.431 50.78 277.151 53.18C280.991 55.58 282.911 58.76 282.911 62.72C282.911 65.12 282.251 67.16 280.931 68.84C279.611 70.4 277.991 71.18 276.071 71.18C274.751 71.18 273.431 70.94 272.111 70.46C270.911 69.86 269.351 69.02 267.431 67.94C263.951 66.14 260.951 64.82 258.431 63.98C255.911 63.02 252.791 62.54 249.071 62.54C244.631 62.54 241.091 63.44 238.451 65.24C235.931 67.04 234.671 69.5 234.671 72.62C234.671 75.62 235.991 77.9 238.631 79.46C241.271 81.02 246.371 82.58 253.931 84.14C261.971 85.82 268.271 87.74 272.831 89.9C277.391 92.06 280.631 94.76 282.551 98C284.591 101.24 285.611 105.38 285.611 110.42C285.611 118.58 282.191 125.12 275.351 130.04C268.631 134.96 259.631 137.42 248.351 137.42Z" fill="#292931"/>
<path d="M336.614 45.8C348.854 45.8 357.914 48.86 363.794 54.98C369.794 60.98 372.794 70.16 372.794 82.52V126.44C372.794 129.68 371.834 132.26 369.914 134.18C367.994 135.98 365.354 136.88 361.994 136.88C358.874 136.88 356.294 135.92 354.254 134C352.334 132.08 351.374 129.56 351.374 126.44V122.48C349.334 127.16 346.094 130.82 341.654 133.46C337.334 136.1 332.294 137.42 326.534 137.42C320.654 137.42 315.314 136.22 310.514 133.82C305.714 131.42 301.934 128.12 299.174 123.92C296.414 119.72 295.034 115.04 295.034 109.88C295.034 103.4 296.654 98.3 299.894 94.58C303.254 90.86 308.654 88.16 316.094 86.48C323.534 84.8 333.794 83.96 346.874 83.96H351.374V79.82C351.374 73.94 350.114 69.68 347.594 67.04C345.074 64.28 340.994 62.9 335.354 62.9C331.874 62.9 328.334 63.44 324.734 64.52C321.134 65.48 316.874 66.92 311.954 68.84C308.834 70.4 306.554 71.18 305.114 71.18C302.954 71.18 301.154 70.4 299.714 68.84C298.394 67.28 297.734 65.24 297.734 62.72C297.734 60.68 298.214 58.94 299.174 57.5C300.254 55.94 301.994 54.5 304.394 53.18C308.594 50.9 313.574 49.1 319.334 47.78C325.214 46.46 330.974 45.8 336.614 45.8ZM331.034 121.22C337.034 121.22 341.894 119.24 345.614 115.28C349.454 111.2 351.374 105.98 351.374 99.62V95.84H348.134C340.094 95.84 333.854 96.2 329.414 96.92C324.974 97.64 321.794 98.9 319.874 100.7C317.954 102.5 316.994 104.96 316.994 108.08C316.994 111.92 318.314 115.1 320.954 117.62C323.714 120.02 327.074 121.22 331.034 121.22Z" fill="#292931"/>
<path d="M441.381 45.8C451.941 45.8 459.801 48.8 464.961 54.8C470.121 60.8 472.701 69.86 472.701 81.98V126.26C472.701 129.62 471.681 132.26 469.641 134.18C467.721 136.1 465.021 137.06 461.541 137.06C458.061 137.06 455.301 136.1 453.261 134.18C451.221 132.26 450.201 129.62 450.201 126.26V83.24C450.201 76.4 448.881 71.42 446.241 68.3C443.721 65.18 439.701 63.62 434.181 63.62C427.701 63.62 422.481 65.66 418.521 69.74C414.681 73.82 412.761 79.28 412.761 86.12V126.26C412.761 129.62 411.741 132.26 409.701 134.18C407.661 136.1 404.901 137.06 401.421 137.06C397.941 137.06 395.181 136.1 393.141 134.18C391.221 132.26 390.261 129.62 390.261 126.26V56.6C390.261 53.48 391.281 50.96 393.321 49.04C395.361 47.12 398.121 46.16 401.601 46.16C404.721 46.16 407.241 47.12 409.161 49.04C411.201 50.84 412.221 53.24 412.221 56.24V61.1C415.221 56.18 419.241 52.4 424.281 49.76C429.321 47.12 435.021 45.8 441.381 45.8Z" fill="#292931"/>
<path d="M500.774 137.06C496.934 137.06 493.754 135.8 491.234 133.28C488.714 130.64 487.454 127.4 487.454 123.56C487.454 119.72 488.714 116.54 491.234 114.02C493.754 111.38 496.934 110.06 500.774 110.06C504.614 110.06 507.794 111.38 510.314 114.02C512.834 116.54 514.094 119.72 514.094 123.56C514.094 127.4 512.834 130.64 510.314 133.28C507.794 135.8 504.614 137.06 500.774 137.06Z" fill="#292931"/>
</svg>
